<?xml version="1.0" encoding="UTF-8"?>
<svg xmlns="http://www.w3.org/2000/svg" width="32" height="32" viewBox="0 0 32 32">
  <style>
    .train { fill: #1a1a1a; }
    .wheel { fill: #4a4a4a; }
    .window { fill: #87ceeb; }
    .smoke { fill: #808080; }
  </style>
  <path class="train" d="M4,20h20v-8H4V20z M4,22v2h20v-2H4z"/>
  <circle class="wheel" cx="8" cy="25" r="2"/>
  <circle class="wheel" cx="20" cy="25" r="2"/>
  <rect class="window" x="6" cy="14" width="4" height="4"/>
  <path class="smoke" d="M24,8c0,0 2,-2 2,-4s-2,-4 -2,-4"/>
  <path class="smoke" d="M26,8c0,0 2,-2 2,-4s-2,-4 -2,-4"/>
  <path class="smoke" d="M28,8c0,0 2,-2 2,-4s-2,-4 -2,-4"/>
</svg>